# xmcd
#
# Track frame offsets:
#	150
#	12070
#	27940
#	44513
#	60834
#	80150
#	94210
#	110895
#
# Disc length: 2770 seconds
#
# Revision: 0
# Processed by: cddbd v1.5PL3 Copyright (c) Steve Scherf et al.
# Submitted via: EasyCDDAExtractor 4.6.9.1
#
DISCID=610ad008
DTITLE=Joan Baez - Where are you now my son
DYEAR=1973
DGENRE=
TTITLE0=Only heaven knows
TTITLE1=Less than the song
TTITLE2=A young gypsy
TTITLE3=04 mary call
TTITLE4=Rider pass by
TTITLE5=Best Of Friends
TTITLE6=Windrose
TTITLE7=Where are you now my son
EXTD=
EXTT0=
EXTT1=
EXTT2=
EXTT3=
EXTT4=
EXTT5=
EXTT6=
EXTT7=
PLAYORDER=
